<?xml version="1.0" standalone="no"?>
<!DOCTYPE svg PUBLIC "-//W3C//DTD SVG 20010904//EN"
 "http://www.w3.org/TR/2001/REC-SVG-20010904/DTD/svg10.dtd">
<svg version="1.0" xmlns="http://www.w3.org/2000/svg"
 width="301.000000pt" height="167.000000pt" viewBox="0 0 301.000000 167.000000"
 preserveAspectRatio="xMidYMid meet">

<g transform="translate(0.000000,167.000000) scale(0.100000,-0.100000)"
fill="#000000" stroke="none">
<path d="M985 1665 c-5 -2 -22 -6 -37 -9 -39 -9 -98 -64 -119 -111 -17 -37
-19 -84 -19 -710 l0 -671 23 -44 c27 -53 81 -98 133 -111 56 -13 1040 -11
1087 2 49 13 105 63 128 114 17 37 19 83 19 710 0 627 -2 673 -19 710 -23 51
-79 101 -128 114 -22 6 -148 11 -299 11 -249 0 -263 -1 -288 -21 l-26 -20 0
-312 0 -312 -28 42 c-51 80 -102 82 -155 7 l-32 -46 -5 317 c-6 374 5 345
-134 344 -50 0 -95 -2 -101 -4z m88 -134 c16 -1 17 -27 17 -396 0 -382 1 -396
20 -415 11 -11 33 -20 49 -20 34 0 53 21 124 135 l48 77 55 -88 c30 -49 64
-97 76 -107 27 -23 63 -22 88 3 19 19 20 33 20 415 l0 395 224 0 c202 0 226
-2 246 -18 l23 -19 0 -649 c0 -357 -3 -658 -7 -670 -3 -12 -18 -26 -32 -33
-35 -15 -989 -15 -1034 1 -18 6 -35 21 -41 35 -13 36 -12 1299 2 1324 13 25
46 39 79 34 14 -2 33 -4 43 -4z"/>
</g>
</svg>
